<?xml version="1.0" standalone="no"?><!DOCTYPE svg PUBLIC "-//W3C//DTD SVG 1.1//EN" "http://www.w3.org/Graphics/SVG/1.1/DTD/svg11.dtd"><svg t="1710056904136" class="icon" viewBox="0 0 1024 1024" version="1.1" xmlns="http://www.w3.org/2000/svg" p-id="4784" xmlns:xlink="http://www.w3.org/1999/xlink" width="200" height="200"><path d="M468.659 141.211c24.142 0 44.742 20.6 44.742 44.742a44.577 44.577 0 0 1-44.742 44.66h-239.2v545.059h239.2c24.142 0 44.742 20.517 44.742 44.66 0 24.224-20.6 44.741-44.742 44.741H185.953a45.401 45.401 0 0 1-44.742-44.906V185.953c0-24.225 19.364-44.742 44.742-44.742h282.624z m100.195 125.657c0-37.491 44.742-55.536 70.038-29.004l232.031 236.892c15.656 15.656 15.656 41.034 0 58.008L638.974 768.256c-25.296 25.379-70.037 7.251-70.037-29.004v-55.618a40.704 40.704 0 0 0-41.034-41.034H338.14a40.704 40.704 0 0 1-41.034-41.034v-196.93c0-22.906 18.128-41.034 41.034-41.034h189.762c22.906 0 41.034-18.127 41.034-41.116z" p-id="4785" fill="#1296db"></path></svg>