<?xml version="1.0" standalone="no"?><!DOCTYPE svg PUBLIC "-//W3C//DTD SVG 1.1//EN" "http://www.w3.org/Graphics/SVG/1.1/DTD/svg11.dtd"><svg t="1709194701817" class="icon" viewBox="0 0 1024 1024" version="1.1" xmlns="http://www.w3.org/2000/svg" p-id="4320" xmlns:xlink="http://www.w3.org/1999/xlink" width="200" height="200"><path d="M443.3 546.1c19.1 0 34.6 15.5 34.6 34.6v408.6c0 19.1-15.5 34.6-34.6 34.6H34.6C15.5 1024 0 1008.5 0 989.4V580.7c0-19.1 15.5-34.6 34.6-34.6h408.7z m546.1 0c19.1 0 34.6 15.5 34.6 34.6v408.6c0 19.1-15.5 34.6-34.6 34.6H580.7c-19.1 0-34.6-15.5-34.6-34.6V580.7c0.1-19.1 15.5-34.6 34.6-34.6h408.7z m-677.7 65.5h-54.9l-11.2 5.4-143 181.7-3 8.8v55.3H241v61.8h70.7v-61.8h43.9v-63.1h-43.9V611.6z m-70.8 108.9v79.1h-61.8l61.8-79.1zM989.4 0c19.1 0 34.6 15.5 34.6 34.6v408.6c0 9.2-3.6 18-10.1 24.5s-15.3 10.1-24.5 10.1H580.7c-19.1 0-34.6-15.5-34.6-34.6V34.6c0-19.1 15.5-34.6 34.6-34.6h408.7zM443.3 0c19.1 0 34.6 15.5 34.6 34.6v408.6c0 9.2-3.6 18-10.1 24.5s-15.3 10.1-24.5 10.1H34.6C15.5 477.9 0 462.4 0 443.3V34.6C0 15.5 15.5 0 34.6 0h408.7z m350.6 99.6c-32.7 0-59.1 16.9-77.3 49-17.1 29.7-25.4 68-25.4 115.1 0 44.2 7.9 79.3 24 105.3 17.9 28.8 44.3 43.5 78.3 43.5 27.2 0 50.9-10.8 69.5-31.5 18.1-20.5 27.2-46.5 27.2-77 0-29.8-7.9-55.2-23.6-75.1l-5.8-6.4c-8.1-8.1-17.2-14.2-27.4-18.2l-5.2-1.8h59.6l-1.9-15.9c-6.8-56.7-38.7-87-92-87z m-1.3 160.7c10.4 0 18.2 3.6 24 10.8 6.5 7.5 9.8 18.3 9.8 32.9 0 14-3.6 25.2-10.6 34.2-6 7.7-13.5 11.4-23.6 11.4-10 0-17.5-3.5-23.4-10.8-6.7-8.1-10.1-19-10.1-33.6 0-14.9 3.3-26 9.8-34 5.9-7.5 13.4-10.9 24.1-10.9z m1-97.8l5.3 0.3c13.3 1.6 20.5 9.9 23.8 27.9l1.9 10.5-7.1-1.6c-5.6-1-11.4-1.5-17.5-1.5l-9 0.4c-11.7 1.1-22.1 4.4-31.3 10.2l-2.2 1.3 2.6-10.2c1.9-6.1 4.2-11.6 6.9-16.7 7.4-14.7 15.8-20.6 26.6-20.6z" fill="#1296db" p-id="4321"></path></svg>