<?xml version="1.0" standalone="no"?><!DOCTYPE svg PUBLIC "-//W3C//DTD SVG 1.1//EN" "http://www.w3.org/Graphics/SVG/1.1/DTD/svg11.dtd"><svg t="1710056153645" class="icon" viewBox="0 0 1412 1024" version="1.1" xmlns="http://www.w3.org/2000/svg" p-id="3667" xmlns:xlink="http://www.w3.org/1999/xlink" width="275.78125" height="200"><path d="M1382.503071 445.970851C1313.294938 135.946665 1215.520795 59.464616 1156.058298 28.850611 1060.861805-20.301288 950.375965 8.300032 913.794523 26.837925c-41.63081 20.868371-69.702476 60.733667-111.933561 78.035701-48.869416 19.950304-115.393968 25.282155-165.358003 1.235859-39.900607-19.138167-75.069638-60.133393-123.303469-78.353493-61.157391-23.092918-163.133456-55.260575-263.873661 15.254038-23.975675 16.772379-194.065254 155.93016-244.982666 590.917398-31.532073 268.252135 118.995616 354.444508 113.522524 350.525068 38.770678 27.188909 125.457396 72.880401 243.075911 1.094618 78.494734-47.880729 142.371016-142.759429 142.371016-142.759429s28.354148-52.753546 66.206759-75.034327c26.623945-15.889622 66.665793-3.778199 66.665794-3.778199h141.417638s44.914666-5.508402 76.270187 8.015431c30.614006 13.02949 47.951349 45.197148 47.951349 45.197148s93.183807 117.653826 182.412864 177.469426c37.993852 25.423396 190.746088 54.801542 269.735166-39.265022 51.199894-61.404563 86.368925-250.632309 28.5307-509.421291z m-755.145472-27.506702a42.725429 42.725429 0 0 1-42.86667 42.584188H477.394874v106.778262c0 23.551951-19.208788 42.725429-42.86667 42.725429h-32.132347a42.725429 42.725429 0 0 1-42.90198-42.725429v-106.778262H252.468443a42.725429 42.725429 0 0 1-42.86667-42.584188v-32.026416c0-23.551951 19.244098-42.725429 42.86667-42.725429h107.060744v-106.637021c0-23.516641 19.208788-42.725429 42.86667-42.725429h32.167658c23.657882 0.03531 42.86667 19.208788 42.86667 42.725429v106.637021h107.060744c23.657882 0 42.86667 19.032236 42.86667 42.725429v32.026416z m301.726272 149.36245a80.154317 80.154317 0 0 1-80.260248-80.083696 80.119007 80.119007 0 0 1 80.260248-79.942456 80.119007 80.119007 0 0 1 80.224937 79.942456 80.119007 80.119007 0 0 1-80.224937 80.083696z m147.243833-177.751908a79.377491 79.377491 0 0 1-79.448111-79.165629 79.23625 79.23625 0 0 1 79.448111-78.989078 79.342181 79.342181 0 0 1 79.448112 78.989078 79.448111 79.448111 0 0 1-79.448112 79.165629z" p-id="3668" fill="#1296db"></path></svg>